<svg xmlns="http://www.w3.org/2000/svg" width="82" height="66" viewBox="0 0 82 66" fill="none">
  <path d="M67.859 50.0551L65.844 56.1001L63.829 63.757C63.829 63.757 58.5901 66.578 58.1871 64.563C57.7841 62.548 60.2021 62.145 60.2021 62.145L61.0081 58.115L54.9631 47.2341L67.859 50.0551Z" fill="white"/>
  <path d="M67.859 50.0551L65.844 56.1001L63.829 63.757C63.829 63.757 58.5901 66.578 58.1871 64.563C57.7841 62.548 60.2021 62.145 60.2021 62.145L61.0081 58.115L54.9631 47.2341L67.859 50.0551Z" fill="white"/>
  <path d="M33.6044 47.6372L29.9774 64.1601C29.9774 64.1601 27.1564 65.7721 25.1414 64.9661C23.1265 64.1601 26.3504 62.1451 26.3504 62.1451C26.3504 62.1451 25.1414 52.0702 19.0965 50.8612C13.0515 49.6522 33.6044 47.6372 33.6044 47.6372Z" fill="white"/>
  <path d="M33.6044 47.6372L29.9774 64.1601C29.9774 64.1601 27.1564 65.7721 25.1414 64.9661C23.1265 64.1601 26.3504 62.1451 26.3504 62.1451C26.3504 62.1451 25.1414 52.0702 19.0965 50.8612C13.0515 49.6522 33.6044 47.6372 33.6044 47.6372Z" fill="white"/>
  <path d="M9.82763 28.2934C9.82763 28.2934 17.8876 31.1143 25.1415 29.5024C25.1415 29.5024 39.2464 27.4874 40.4554 27.0844C41.6644 26.6814 55.3663 25.8754 62.6202 27.0844C62.6202 27.0844 82.77 11.3675 71.4861 4.51656C71.4861 4.51656 66.6502 6.93454 65.4412 5.32256C64.9878 4.71806 65.2145 3.94355 65.6749 3.21155C66.195 2.41615 66.901 1.75938 67.7318 1.298C68.5626 0.836618 69.4933 0.5845 70.4434 0.563462C74.6547 0.405798 82.201 1.91903 78.7757 15.6876C77.7991 19.4853 76.0004 23.0222 73.5066 26.0483C71.6719 28.3107 69.7734 31.4418 70.6801 33.9353C72.2921 38.3683 72.6951 45.2192 72.6951 45.2192L78.3371 53.6822C78.3371 53.6822 81.561 64.1601 81.561 64.5631C81.561 64.9661 77.177 65.8209 76.3221 64.9661C75.5161 64.1601 77.5311 62.5481 77.5311 62.5481C77.5311 62.5481 75.9191 59.3241 73.0981 58.5181C70.2771 57.7121 62.6202 54.8911 61.4112 53.6822C60.2022 52.4732 34.4104 45.2192 27.1565 52.0702C23.0858 55.959 18.779 59.5929 14.2606 62.9511C14.2606 62.9511 12.2456 65.7721 9.82763 65.7721C7.40965 65.7721 7.00665 62.1451 9.82763 61.7421C12.6486 61.3391 16.6786 51.6672 16.6786 51.6672C16.6786 51.6672 17.8876 44.4132 11.8426 43.2042C8.51027 42.5378 6.52507 42.4837 5.41438 42.5693C4.97079 42.6061 4.52432 42.5533 4.10158 42.4139C3.67883 42.2746 3.28847 42.0516 2.95377 41.7581C2.23462 41.0666 1.59047 40.3011 1.032 39.4744C0.884605 39.2645 0.789627 39.0223 0.755043 38.7682C0.720451 38.514 0.747246 38.2552 0.833183 38.0136C1.36996 36.5485 1.81664 35.0519 2.17069 33.5323C2.57369 31.5173 5.79766 29.9054 5.79766 29.9054C5.79766 29.9054 6.60365 24.2634 7.81264 25.8754C8.43216 26.7234 9.10519 27.5311 9.82763 28.2934Z" fill="white"/>
  <path d="M9.82763 28.2934C9.82763 28.2934 17.8876 31.1143 25.1415 29.5024C25.1415 29.5024 39.2464 27.4874 40.4554 27.0844C41.6644 26.6814 55.3663 25.8754 62.6202 27.0844C62.6202 27.0844 82.77 11.3675 71.4861 4.51656C71.4861 4.51656 66.6502 6.93454 65.4412 5.32256C64.9878 4.71806 65.2145 3.94355 65.6749 3.21155C66.195 2.41615 66.901 1.75938 67.7318 1.298C68.5626 0.836618 69.4933 0.5845 70.4434 0.563462C74.6547 0.405798 82.201 1.91903 78.7757 15.6876C77.7991 19.4853 76.0004 23.0222 73.5066 26.0483C71.6719 28.3107 69.7734 31.4418 70.6801 33.9353C72.2921 38.3683 72.6951 45.2192 72.6951 45.2192L78.3371 53.6822C78.3371 53.6822 81.561 64.1601 81.561 64.5631C81.561 64.9661 77.177 65.8209 76.3221 64.9661C75.5161 64.1601 77.5311 62.5481 77.5311 62.5481C77.5311 62.5481 75.9191 59.3241 73.0981 58.5181C70.2771 57.7121 62.6202 54.8911 61.4112 53.6822C60.2022 52.4732 34.4104 45.2192 27.1565 52.0702C23.0858 55.959 18.779 59.5929 14.2606 62.9511C14.2606 62.9511 12.2456 65.7721 9.82763 65.7721C7.40965 65.7721 7.00665 62.1451 9.82763 61.7421C12.6486 61.3391 16.6786 51.6672 16.6786 51.6672C16.6786 51.6672 17.8876 44.4132 11.8426 43.2042C8.51027 42.5378 6.52507 42.4837 5.41438 42.5693C4.97079 42.6061 4.52432 42.5533 4.10158 42.4139C3.67883 42.2746 3.28847 42.0516 2.95377 41.7581C2.23462 41.0666 1.59047 40.3011 1.032 39.4744C0.884605 39.2645 0.789627 39.0223 0.755043 38.7682C0.720451 38.514 0.747246 38.2552 0.833183 38.0136C1.36996 36.5485 1.81664 35.0519 2.17069 33.5323C2.57369 31.5173 5.79766 29.9054 5.79766 29.9054C5.79766 29.9054 6.60365 24.2634 7.81264 25.8754C8.43216 26.7234 9.10519 27.5311 9.82763 28.2934Z" fill="white"/>
</svg>