<svg xmlns="http://www.w3.org/2000/svg" width="14" height="13" viewBox="0 0 14 13" fill="none">
  <path d="M13.3002 0.480619C12.9102 0.11377 12.2802 0.11377 11.8902 0.480619L7.00021 5.07094L2.11021 0.471212C1.72022 0.104363 1.09021 0.104363 0.700215 0.471212C0.310215 0.838062 0.310215 1.43067 0.700215 1.79751L5.59021 6.39724L0.700215 10.997C0.310215 11.3638 0.310215 11.9564 0.700215 12.3233C1.09021 12.6901 1.72022 12.6901 2.11021 12.3233L7.00021 7.72354L11.8902 12.3233C12.2802 12.6901 12.9102 12.6901 13.3002 12.3233C13.6902 11.9564 13.6902 11.3638 13.3002 10.997L8.41021 6.39724L13.3002 1.79751C13.6802 1.44007 13.6802 0.838062 13.3002 0.480619Z" fill="#291507"/>
</svg>