<svg xmlns="http://www.w3.org/2000/svg" width="25" height="25" viewBox="0 0 25 25" fill="none">
  <g clip-path="url(#clip0_1_79)">
    <path d="M15.8006 14.8677H15.0106L14.7306 14.5977C15.9306 13.1977 16.5506 11.2877 16.2106 9.25769C15.7406 6.47769 13.4206 4.25769 10.6206 3.91769C6.39061 3.39769 2.83061 6.95769 3.35061 11.1877C3.69061 13.9877 5.91061 16.3077 8.69061 16.7777C10.7206 17.1177 12.6306 16.4977 14.0306 15.2977L14.3006 15.5777V16.3677L18.5506 20.6177C18.9606 21.0277 19.6306 21.0277 20.0406 20.6177C20.4506 20.2077 20.4506 19.5377 20.0406 19.1277L15.8006 14.8677ZM9.80061 14.8677C7.31061 14.8677 5.30061 12.8577 5.30061 10.3677C5.30061 7.87769 7.31061 5.86769 9.80061 5.86769C12.2906 5.86769 14.3006 7.87769 14.3006 10.3677C14.3006 12.8577 12.2906 14.8677 9.80061 14.8677Z" fill="#291507"/>
  </g>
  <defs>
    <clipPath id="clip0_1_79">
      <rect width="24" height="24" fill="white" transform="translate(0.300598 0.867676)"/>
    </clipPath>
  </defs>
</svg>